<svg width="25" height="25" viewBox="0 0 25 25" fill="none" xmlns="http://www.w3.org/2000/svg">
<g clip-path="url(#clip0_850_2)">
<path d="M12.9355 24.1719C6.32055 24.1719 0.935547 18.7869 0.935547 12.1719C0.935547 5.55688 6.32055 0.171875 12.9355 0.171875C19.5505 0.171875 24.9355 5.55688 24.9355 12.1719C24.9355 18.7869 19.5505 24.1719 12.9355 24.1719ZM12.9355 1.38287C6.98555 1.38287 2.14655 6.22188 2.14655 12.1719C2.14655 18.1219 6.98555 22.9619 12.9355 22.9619C18.8855 22.9619 23.7255 18.1219 23.7255 12.1719C23.7255 6.22188 18.8855 1.38287 12.9355 1.38287V1.38287ZM5.82555 18.7029C7.58155 20.6229 10.1195 21.8159 12.9355 21.8159C14.3745 21.8159 15.7365 21.5029 16.9625 20.9399L10.2655 14.2599L5.82555 18.7029V18.7029ZM20.1135 18.6359C21.6545 16.9259 22.5975 14.6459 22.5975 12.1699C22.5975 8.28488 20.3105 4.95487 17.0295 3.40987L10.9405 9.48588L20.1045 18.6359H20.1135ZM10.2365 10.2069L5.16255 15.2619L4.48355 14.5819L9.82055 9.24588L16.0505 3.02087C15.0725 2.69287 14.0305 2.51187 12.9355 2.51187C7.59855 2.50887 3.27255 6.83488 3.27255 12.1719C3.27255 14.3439 3.98555 16.3499 5.21155 17.9729L10.2675 12.9179L10.6265 13.2469L17.8715 20.4919C18.0215 20.4099 18.1565 20.3279 18.2915 20.2259L10.2655 12.2219L5.41155 17.0769L4.73255 16.3979L10.2675 10.8629L10.6265 11.1939L19.0865 19.6309C19.2215 19.5309 19.3415 19.4159 19.4615 19.3149L10.3255 10.1989L10.2425 10.2139L10.2365 10.2069V10.2069ZM13.2835 11.2349L12.6055 10.5589L17.3935 5.76888L18.0725 6.45787L13.2835 11.2429V11.2349V11.2349ZM17.8255 4.65688L12.3055 10.1769L11.6255 9.49788L17.1465 3.97787L17.8255 4.66187V4.65688V4.65688Z" fill="white"/>
</g>
<defs>
<clipPath id="clip0_850_2">
<rect width="24" height="24" fill="white" transform="translate(0.935547 0.171875)"/>
</clipPath>
</defs>
</svg>
